<svg height="81.861465" width="81.863388" xmlns="http://www.w3.org/2000/svg" xmlns:xlink="http://www.w3.org/1999/xlink">
	<clipPath id="a">
		<path d="m0 222.5h217.333v-222.5h-217.333z" />
	</clipPath>
	<clipPath>
		<path d="m0 222.5h217.333v-222.5h-217.333z" />
	</clipPath>
	<clipPath>
		<path d="m0 222.5h217.333v-222.5h-217.333z" />
	</clipPath>
	<clipPath>
		<path d="m0 222.5h217.333v-222.5h-217.333z" />
	</clipPath>
	<clipPath>
		<path d="m0 222.5h217.333v-222.5h-217.333z" />
	</clipPath>
	<clipPath>
		<path d="m0 222.5h217.333v-222.5h-217.333z" />
	</clipPath>
	<g clip-path="url(#a)" transform="matrix(.481413425 0 0 -.481413425 -11.3622675 105.59216125)">
		<path d="m0 0c0-3.326-2.721-6.047-6.047-6.047h-157.954c-3.326 0-6.047 2.721-6.047 6.047v157.95c0 3.325 2.721 6.047 6.047 6.047h157.954c3.326 0 6.047-2.722 6.047-6.047z" fill="#d0112b" transform="translate(193.6499 55.3408)" />
		<g fill="#fff">
			<path d="m0 0h-4.689c-1.627 0-2.942-1.518-2.942-3.387v-18.68l-21.258-.002v48.926c0 1.872-1.318 3.387-2.944 3.387h-4.69c-1.622 0-2.941-1.515-2.941-3.387v-77.809c0-1.869 1.319-3.386 2.941-3.386h4.69c1.626 0 2.944 1.517 2.944 3.386v18.309l21.258.002v-18.311c0-1.869 1.315-3.386 2.942-3.386h4.689c1.627 0 2.945 1.517 2.945 3.386v47.565c0 1.869-1.318 3.387-2.945 3.387" transform="translate(139.6753 124.7827)">
        <!-- <animate
            attributeName="opacity"
            dur="3s"
            values="0;1;0;0"
            repeatCount="indefinite" 
            begin="1.3"/> -->
      </path>
			<path d="m0 0c0 9.655-4.634 24.859-6.604 24.838h-.002-.002c-1.968.021-6.605-15.183-6.605-24.838.004-8.324 3.451-9.797 5.66-10.058.342-.048.663-.06.945-.057h.002.002c.282-.003.603.009.945.057 2.212.261 5.658 1.734 5.659 10.058" transform="translate(123.2378 183.5024)"
      >
      <!-- szosty -->
        <animate
            attributeName="opacity"
            dur="2s"
            values="0;1;0"
            repeatCount="indefinite" 
            begin="0.99"/>
      </path>
			<path d="m0 0c-9.655 0-24.859-4.634-24.838-6.604l.001-.002-.001-.002c-.021-1.968 15.183-6.604 24.838-6.604 8.325.003 9.797 3.45 10.058 5.659.048.342.061.663.057.945v.002.002c.004.282-.009.603-.057.945-.261 2.212-1.733 5.658-10.058 5.659" transform="translate(80.3135 128.4673)">
      <!-- drugi -->
          <animate 
            attributeName="opacity"
            dur="2s"
            values="0;1;0"
            repeatCount="indefinite" 
            begin="0.32"/>
      </path>
			<path d="m0 0c-8.357 4.836-23.838 8.439-24.806 6.724 0 0 .001 0-.001-.003l-.001-.001c-1.004-1.694 9.833-13.321 18.191-18.156 7.207-4.167 10.208-1.919 11.54-.138.213.271.385.544.522.789l.001.002.002.003c.143.24.294.525.423.844.881 2.046 1.334 5.765-5.871 9.936" transform="translate(88.0771 167.5356)">
      <!-- czwarty -->
              <animate 
            attributeName="opacity"
            dur="2s"
            values="0;1;0"
            repeatCount="indefinite" 
            begin="0.64"/>
      </path>
      <!-- trzeci -->
			<path d="m0 0c-9.602 1.02-25.209-1.983-25.397-3.944 0 0 .001 0 .001-.003 0 0-.001.001 0-.002-.229-1.955 14.399-8.171 24-9.19 8.279-.875 10.107 2.396 10.599 4.566.085.335.131.654.157.934v.002l.001.003c.034.28.055.6.043.945-.027 2.226-1.126 5.808-9.404 6.689" transform="translate(80.9194 149.3696)">
              <animate
            attributeName="opacity"
            dur="2s"
            values="0;1;0"
            repeatCount="indefinite" 
            begin="0.48"/>
      </path>
        <!-- piaty -->
			<path d="m0 0c-4.817 8.367-16.419 19.233-18.116 18.231 0 0 .001-.001-.001-.002 0 0-.001.001-.002 0-1.716-.963 1.851-16.454 6.668-24.821 4.157-7.212 7.878-6.767 9.923-5.892.32.128.605.278.847.421l.002.001h.001c.246.138.519.31.792.522 1.786 1.329 4.038 4.324-.114 11.54" transform="translate(103.6826 180.2876)">
              <animate
            attributeName="opacity"
            dur="2s"
            values="0;1;0"
            repeatCount="indefinite" 
            begin="0.8"/>
      </path>
      <!-- pierwszy -->
			<path d="m0 0c-9.655 0-24.859-4.634-24.838-6.604l.001-.002-.001-.002c-.021-1.968 15.183-6.604 24.838-6.604 8.325.003 9.797 3.45 10.058 5.659.048.342.061.663.057.945v.002.002c.004.282-.009.603-.057.945-.261 2.212-1.733 5.657-10.058 5.659" transform="translate(80.3135 107.7979)">
              <animate
            attributeName="opacity"
            dur="2s"
            values="0;1;0"
            repeatCount="indefinite" 
            begin="0.16"/>
      </path>
		</g>
	</g>
</svg>
